<svg width="5" height="16" viewBox="0 0 5 16" fill="none" xmlns="http://www.w3.org/2000/svg">
<g clip-path="url(#clip0_7_160)">
<path d="M2.98438 11.25C2.52025 11.25 2.07513 11.4344 1.74694 11.7626C1.41875 12.0908 1.23438 12.5359 1.23438 13C1.23438 13.4641 1.41875 13.9092 1.74694 14.2374C2.07513 14.5656 2.52025 14.75 2.98438 14.75C3.4485 14.75 3.89362 14.5656 4.22181 14.2374C4.55 13.9092 4.73438 13.4641 4.73438 13C4.73438 12.5359 4.55 12.0908 4.22181 11.7626C3.89362 11.4344 3.4485 11.25 2.98438 11.25ZM2.98438 6.25C2.52025 6.25 2.07513 6.43437 1.74694 6.76256C1.41875 7.09075 1.23438 7.53587 1.23438 8C1.23438 8.46413 1.41875 8.90925 1.74694 9.23744C2.07513 9.56563 2.52025 9.75 2.98438 9.75C3.4485 9.75 3.89362 9.56563 4.22181 9.23744C4.55 8.90925 4.73438 8.46413 4.73438 8C4.73438 7.53587 4.55 7.09075 4.22181 6.76256C3.89362 6.43437 3.4485 6.25 2.98438 6.25ZM4.73438 3C4.73438 2.53587 4.55 2.09075 4.22181 1.76256C3.89362 1.43437 3.4485 1.25 2.98438 1.25C2.52025 1.25 2.07513 1.43437 1.74694 1.76256C1.41875 2.09075 1.23438 2.53587 1.23438 3C1.23438 3.46413 1.41875 3.90925 1.74694 4.23744C2.07513 4.56563 2.52025 4.75 2.98438 4.75C3.4485 4.75 3.89362 4.56563 4.22181 4.23744C4.55 3.90925 4.73438 3.46413 4.73438 3Z" fill="#4B5563"/>
</g>
<defs>
<clipPath id="clip0_7_160">
<path d="M0.984375 0H4.98438V16H0.984375V0Z" fill="white"/>
</clipPath>
</defs>
</svg>
