<svg width="16" height="18" viewBox="0 0 16 18" fill="none" xmlns="http://www.w3.org/2000/svg">
<g clip-path="url(#clip0_7_88)">
<path d="M8.12495 0C7.50268 0 6.99995 0.502734 6.99995 1.125V1.7543C4.45112 2.15859 2.49995 4.36641 2.49995 7.03125V8.20547C2.49995 9.80156 1.95502 11.352 0.960103 12.5965L0.436274 13.2539C0.232368 13.507 0.193696 13.8551 0.334321 14.1469C0.474946 14.4387 0.770259 14.625 1.0937 14.625H15.1562C15.4796 14.625 15.7749 14.4387 15.9156 14.1469C16.0562 13.8551 16.0175 13.507 15.8136 13.2539L15.2898 12.6C14.2949 11.352 13.7499 9.80156 13.7499 8.20547V7.03125C13.7499 4.36641 11.7988 2.15859 9.24995 1.7543V1.125C9.24995 0.502734 8.74721 0 8.12495 0ZM8.12495 3.375H8.4062C10.4242 3.375 12.0624 5.01328 12.0624 7.03125V8.20547C12.0624 9.88945 12.5511 11.5312 13.4581 12.9375H2.79174C3.69877 11.5312 4.18745 9.88945 4.18745 8.20547V7.03125C4.18745 5.01328 5.82573 3.375 7.8437 3.375H8.12495ZM10.3749 15.75H8.12495H5.87495C5.87495 16.3477 6.11049 16.9207 6.53237 17.3426C6.95424 17.7645 7.52729 18 8.12495 18C8.7226 18 9.29565 17.7645 9.71752 17.3426C10.1394 16.9207 10.3749 16.3477 10.3749 15.75Z" fill="#4B5563"/>
</g>
<defs>
<clipPath id="clip0_7_88">
<path d="M0.25 0H16V18H0.25V0Z" fill="white"/>
</clipPath>
</defs>
</svg>
