<svg width="23" height="18" viewBox="0 0 23 18" fill="none" xmlns="http://www.w3.org/2000/svg">
<g clip-path="url(#clip0_7_625)">
<g clip-path="url(#clip1_7_625)">
<path d="M6.75 4.5C6.75 3.87773 7.25273 3.375 7.875 3.375C8.49727 3.375 9 3.87773 9 4.5V4.77422C9 5.74805 8.91562 6.71836 8.75039 7.67461L5.7832 8.56406C4.35586 8.99297 3.37852 10.3078 3.37852 11.7984V14.3262C3.37852 15.7324 4.52109 16.875 5.92734 16.875C6.84141 16.875 7.68516 16.3863 8.13867 15.5918L8.62734 14.7375C9.56953 13.0852 10.2621 11.3027 10.6805 9.44648L13.9992 8.45156L13.5598 9.76992C13.4438 10.1145 13.5035 10.4906 13.7145 10.7824C13.9254 11.0742 14.2664 11.25 14.6285 11.25H19.125C19.7473 11.25 20.25 10.7473 20.25 10.125C20.25 9.50273 19.7473 9 19.125 9H16.1859L16.8188 7.10508C16.9523 6.70781 16.8504 6.26836 16.5586 5.96602C16.2668 5.66367 15.8309 5.55117 15.4266 5.6707L11.1234 6.96445C11.2078 6.23672 11.25 5.50898 11.25 4.77422V4.5C11.25 2.63672 9.73828 1.125 7.875 1.125C6.01172 1.125 4.5 2.63672 4.5 4.5V5.625C4.5 6.24727 5.00273 6.75 5.625 6.75C6.24727 6.75 6.75 6.24727 6.75 5.625V4.5ZM6.42656 10.7227L8.14922 10.2059C7.78359 11.3941 7.28789 12.5402 6.66914 13.623L6.18047 14.4773C6.12773 14.5687 6.0293 14.6285 5.92031 14.6285C5.75508 14.6285 5.62148 14.4949 5.62148 14.3297V11.7984C5.62148 11.3027 5.94844 10.8633 6.42305 10.7191L6.42656 10.7227ZM0.84375 12.9375C0.376172 12.9375 0 13.3137 0 13.7812C0 14.2488 0.376172 14.625 0.84375 14.625H2.26055C2.25352 14.5266 2.25 14.4281 2.25 14.3262V12.9375H0.84375ZM21.6562 14.625C22.1238 14.625 22.5 14.2488 22.5 13.7812C22.5 13.3137 22.1238 12.9375 21.6562 12.9375H10.7543C10.5188 13.5105 10.2551 14.073 9.97031 14.625H21.6562Z" fill="#1F2937"/>
</g>
</g>
<defs>
<clipPath id="clip0_7_625">
<rect width="22.5" height="18" fill="white"/>
</clipPath>
<clipPath id="clip1_7_625">
<path d="M0 0H22.5V18H0V0Z" fill="white"/>
</clipPath>
</defs>
</svg>
