<svg width="21" height="18" viewBox="0 0 21 18" fill="none" xmlns="http://www.w3.org/2000/svg">
<g clip-path="url(#clip0_7_608)">
<path d="M18.5625 5.625V14.625C18.5625 14.9344 18.3094 15.1875 18 15.1875H11.25C11.25 13.6336 9.99141 12.375 8.4375 12.375H6.1875C4.63359 12.375 3.375 13.6336 3.375 15.1875H2.25C1.94062 15.1875 1.6875 14.9344 1.6875 14.625V5.625H18.5625ZM2.25 1.125C1.00898 1.125 0 2.13398 0 3.375V14.625C0 15.866 1.00898 16.875 2.25 16.875H18C19.241 16.875 20.25 15.866 20.25 14.625V3.375C20.25 2.13398 19.241 1.125 18 1.125H2.25ZM9.5625 9C9.5625 8.40326 9.32545 7.83097 8.90349 7.40901C8.48153 6.98705 7.90924 6.75 7.3125 6.75C6.71576 6.75 6.14347 6.98705 5.72151 7.40901C5.29955 7.83097 5.0625 8.40326 5.0625 9C5.0625 9.59674 5.29955 10.169 5.72151 10.591C6.14347 11.0129 6.71576 11.25 7.3125 11.25C7.90924 11.25 8.48153 11.0129 8.90349 10.591C9.32545 10.169 9.5625 9.59674 9.5625 9ZM13.2188 7.3125C12.7512 7.3125 12.375 7.68867 12.375 8.15625C12.375 8.62383 12.7512 9 13.2188 9H16.0312C16.4988 9 16.875 8.62383 16.875 8.15625C16.875 7.68867 16.4988 7.3125 16.0312 7.3125H13.2188ZM13.2188 10.6875C12.7512 10.6875 12.375 11.0637 12.375 11.5312C12.375 11.9988 12.7512 12.375 13.2188 12.375H16.0312C16.4988 12.375 16.875 11.9988 16.875 11.5312C16.875 11.0637 16.4988 10.6875 16.0312 10.6875H13.2188Z" fill="#1F2937"/>
</g>
<defs>
<clipPath id="clip0_7_608">
<path d="M0 0H20.25V18H0V0Z" fill="white"/>
</clipPath>
</defs>
</svg>
