<svg width="38" height="30" viewBox="0 0 38 30" fill="none" xmlns="http://www.w3.org/2000/svg">
<g clip-path="url(#clip0_7_825)">
<path d="M8.6875 28.125C4.0293 28.125 0.25 24.3457 0.25 19.6875C0.25 16.0078 2.60547 12.8789 5.88672 11.7246C5.88086 11.5664 5.875 11.4082 5.875 11.25C5.875 6.07031 10.0703 1.875 15.25 1.875C18.7246 1.875 21.7539 3.76172 23.377 6.57422C24.2676 5.97656 25.3457 5.625 26.5 5.625C29.6055 5.625 32.125 8.14453 32.125 11.25C32.125 11.9648 31.9902 12.6445 31.75 13.2773C35.1719 13.9688 37.75 16.998 37.75 20.625C37.75 24.7676 34.3926 28.125 30.25 28.125H8.6875ZM13.3164 15.4102C12.7656 15.9609 12.7656 16.8516 13.3164 17.3965C13.8672 17.9414 14.7578 17.9473 15.3027 17.3965L17.5879 15.1113V22.9688C17.5879 23.748 18.2148 24.375 18.9941 24.375C19.7734 24.375 20.4004 23.748 20.4004 22.9688V15.1113L22.6855 17.3965C23.2363 17.9473 24.127 17.9473 24.6719 17.3965C25.2168 16.8457 25.2227 15.9551 24.6719 15.4102L19.9844 10.7227C19.4336 10.1719 18.543 10.1719 17.998 10.7227L13.3105 15.4102H13.3164Z" fill="#9CA3AF"/>
</g>
<defs>
<clipPath id="clip0_7_825">
<path d="M0.25 0H37.75V30H0.25V0Z" fill="white"/>
</clipPath>
</defs>
</svg>
